<svg width="512" height="512" xmlns="http://www.w3.org/2000/svg">

 <g>
  <title>background</title>
  <rect fill="none" id="canvas_background" height="402" width="582" y="-1" x="-1"/>
 </g>
 <g>
  <title>Layer 1</title>
  <path id="svg_2" fill="#6f85d5" d="m256,455.5c-110,0 -199.5,-89.5 -199.5,-199.5s89.5,-199.5 199.5,-199.5s199.5,89.5 199.5,199.5c0,35.01001 -9.200012,69.450012 -26.609985,99.600006c-16.880005,29.23999 -41.100006,53.919983 -70.02002,71.359985c-3.549988,2.140015 -8.160004,1 -10.299988,-2.549988c-2.140015,-3.550018 -1,-8.160004 2.549988,-10.300018c55.959991,-33.73999 89.370026,-92.849976 89.370026,-158.11998c0,-101.730011 -82.77002,-184.500008 -184.500015,-184.500008s-184.490005,82.780006 -184.490005,184.510002s82.770004,184.5 184.5,184.5c22.149994,0 43.820007,-3.880005 64.380005,-11.540009c3.880005,-1.440002 8.199982,0.529999 9.649994,4.410004c1.450012,3.880005 -0.529999,8.200012 -4.410004,9.649994c-22.25,8.279999 -45.669983,12.480011 -69.619995,12.480011z"/>
  <path id="svg_4" fill="#6f85d5" d="m313.899994,360.440002c-5.320007,0 -8.330017,-1.950012 -12.890015,-8.410004c-0.97998,-1.389984 -2.099976,-2.970001 -3.609985,-4.920013c-2.670013,-3.469971 -2.540009,-6.539978 -1.970001,-8.509979c0.019989,-0.059998 0.040009,-0.119995 0.049988,-0.179993c-12.799988,2.579987 -26.329987,3.819977 -40.799988,3.759979c-13.610001,-0.059998 -26.459991,-1.320007 -38.619995,-3.829987c1.169998,3.589996 -0.419998,6.5 -1.830002,9.079987l-0.360001,0.660004c-7.149994,13.179993 -18.389999,12.800018 -26.220001,11.369995c-27.179993,-4.97998 -48.689987,-15.410004 -65.769997,-31.899994c-5.360001,-5.179993 -7.479996,-10.76001 -6.879997,-18.089996c1.349998,-16.320007 3.410004,-31.320007 6.309998,-45.850006c0.760002,-3.790009 4.450005,-6.25 8.229996,-5.5c3.790009,0.76001 6.25,4.440002 5.5,8.230011c-2.789993,14.009979 -4.779999,28.48999 -6.089996,44.269989c-0.259995,3.089996 0.339996,4.630005 2.650009,6.869995c15.029999,14.51001 34.179993,23.740021 58.559998,28.200012c5.649994,1.040009 8.119995,0.299988 10,-2.089996c-11.960007,-5.040009 -23.080002,-11.859985 -33.070007,-20.290009l-0.269989,-0.220001c-3.570007,-3.01001 -7.610001,-6.419983 -10.570007,-11.309998c-1.710007,-2.820007 -1.220001,-6.450012 1.179993,-8.709991c2.390015,-2.26001 6.040009,-2.550018 8.76001,-0.690002c25.179993,17.220001 54.139999,25.660004 88.550003,25.799988c0.309998,0 0.619995,0 0.919998,0c34.389984,0 63.290009,-7.959991 88.339996,-24.320007c2.649994,-1.72998 6.140015,-1.469971 8.5,0.650024c2.359985,2.119995 3,5.559998 1.570007,8.380005c-2.369995,4.669983 -6.029999,7.679993 -8.970001,10.099976c-0.440002,0.360016 -0.869995,0.720001 -1.300018,1.080017c-9.209991,7.789978 -19.629974,14.139984 -31.72998,19.350006c0.130005,0.179993 0.25,0.349976 0.359985,0.519989c0.649994,0.919983 1.369995,1.940002 1.850006,2.529999c1.26001,-0.049988 3.850006,-0.440002 6.380005,-0.829987l1.029999,-0.160004c23.950012,-3.630005 43.450012,-13.110016 59.630005,-28.970001c1.559998,-1.529999 1.940002,-2.600006 1.709991,-4.76001l-0.350006,-3.369995c-1,-9.600006 -2.039978,-19.540009 -3.630005,-29.130005c-5.379974,-32.399994 -13.819977,-59.559998 -25.809998,-83.019989c-0.429993,-0.839996 -0.839996,-1.710007 -1.25,-2.570007c-0.679993,-1.439987 -1.319977,-2.779999 -2,-3.899994c0.26001,0.910004 0.420013,1.949997 0.420013,3.119995c0,2.470001 -1.300018,4.76001 -3.429993,6.029999c-2.130005,1.26001 -4.76001,1.310013 -6.930023,0.12001c-26.72998,-14.650009 -54.309998,-21.790009 -84.319992,-21.820007c-0.059998,0 -0.12999,0 -0.190002,0c-17.979996,0 -35.949997,2.820007 -53.419998,8.389999c-10.220001,3.26001 -20.559982,7.540009 -30.73999,12.740005c-3.100006,1.580002 -6.880005,0.649994 -8.889999,-2.180008c-1.070007,-1.509995 -1.470001,-3.319992 -1.220001,-5.049988c-1.710007,2.329987 -3.080002,4.869995 -4.139999,7.649994c-1.080002,2.850006 -2.360001,5.529999 -3.590012,8.119995c-1.019989,2.139999 -1.979996,4.150009 -2.799988,6.180008c-3.720001,9.220001 -7.029999,18.919998 -9.830002,28.830002c-1.050003,3.720001 -4.930008,5.87999 -8.639999,4.830002c-3.720001,-1.050003 -5.880005,-4.920013 -4.830002,-8.639999c2.940002,-10.390015 6.410004,-20.570007 10.319992,-30.26001c0.980011,-2.429993 2.080002,-4.729996 3.139999,-6.959991c1.170013,-2.450012 2.270004,-4.76001 3.150009,-7.080002c4.389999,-11.550003 12.669998,-20.320007 25.290009,-26.809998c15.550003,-7.990005 28.979996,-12.720001 42.279984,-14.880005c1.590012,-0.259995 3.710007,-0.540009 5.980011,-0.460007c5.389999,0.210007 9.349991,3.940002 10.349991,9.740005c0.059998,0.380005 0.290009,2.009995 -0.179993,3.910004c9.209991,-1.380005 18.48999,-2.080002 27.769989,-2.080002c0.070007,0 0.139999,0 0.210007,0c9.589996,0.009995 18.959991,0.690002 28.130005,2.059998c-0.27002,-1.119995 -0.360016,-2.440002 -0.140015,-3.970001c0.839996,-5.679993 5.600006,-10.830002 14.320007,-9.589996c20.230011,2.899994 39.179993,10.800003 57.940002,24.169998c4.589996,3.270004 6.829987,7.990005 8.640015,11.770004c0.359985,0.75 0.709991,1.48999 1.079987,2.220001c12.649994,24.759995 21.540009,53.25 27.149994,87.100006c1.660004,10.009979 2.720001,20.159973 3.73999,29.970001l0.350006,3.359985c0.670013,6.399994 -1.23999,11.709991 -5.839996,16.220001c-18.100006,17.75 -40.75,28.790009 -67.329987,32.820007l-1.02002,0.149994c-3.639984,0.569977 -6.48999,0.959991 -8.869995,0.959991z"/>
  <path id="svg_6" fill="#6f85d5" d="m236.960007,272.970001c-2.110001,12.079987 -12.410004,20.769989 -22.979996,19.429993c-11.680008,-1.470001 -20.529999,-13.579987 -19.300003,-26.419983c1.240005,-12.930008 10.869995,-22.720016 21.910004,-22.270004c11.679993,0.479996 20.809998,11.339996 20.720001,25.699997c-0.050018,0.5 -0.090012,2.049988 -0.350006,3.559998z"/>
  <path id="svg_8" fill="#6f85d5" d="m316.839996,270.410004c-1.329987,12.929993 -11.040009,22.660004 -22.059998,22.109985c-11.540009,-0.579987 -20.570007,-11.289978 -20.570007,-25.379974c0.050018,-0.559998 0.070007,-2.110016 0.309998,-3.619995c1.990021,-12.220016 12.490021,-21.110016 23.180023,-19.670013c11.679993,1.579987 20.459991,13.759979 19.139984,26.559998z"/>
 </g>
</svg>